<mxfile host="app.diagrams.net" agent="Mozilla/5.0 (Windows NT 10.0; Win64; x64) AppleWebKit/537.36 (KHTML, like Gecko) Chrome/131.0.0.0 Safari/537.36" version="24.9.3">
  <diagram name="Page-1" id="RiLb1TExcjQthUdOGcIE">
    <mxGraphModel dx="880" dy="529" grid="1" gridSize="10" guides="1" tooltips="1" connect="1" arrows="1" fold="1" page="1" pageScale="1" pageWidth="850" pageHeight="1100" math="0" shadow="0">
      <root>
        <mxCell id="0" />
        <mxCell id="1" parent="0" />
        <mxCell id="mQTpq0uyzVnwd5tYp-rb-5" value="User" style="whiteSpace=wrap;html=1;align=center;fillColor=#f8cecc;strokeColor=#b85450;" parent="1" vertex="1">
          <mxGeometry x="60" y="120" width="100" height="40" as="geometry" />
        </mxCell>
        <mxCell id="mQTpq0uyzVnwd5tYp-rb-6" value="Bank" style="whiteSpace=wrap;html=1;align=center;fillColor=#f8cecc;strokeColor=#b85450;" parent="1" vertex="1">
          <mxGeometry x="630" y="120" width="120" height="50" as="geometry" />
        </mxCell>
        <mxCell id="mQTpq0uyzVnwd5tYp-rb-17" value="User Credentials" style="html=1;verticalAlign=bottom;endArrow=block;curved=0;rounded=0;exitX=1;exitY=0;exitDx=0;exitDy=0;fontSize=12;" parent="1" source="mQTpq0uyzVnwd5tYp-rb-5" target="jifBtWdmBy9m-nwZBecx-1" edge="1">
          <mxGeometry x="0.1471" y="-7" width="80" relative="1" as="geometry">
            <mxPoint x="170" y="120" as="sourcePoint" />
            <mxPoint x="330" y="120" as="targetPoint" />
            <Array as="points">
              <mxPoint x="240" y="100" />
            </Array>
            <mxPoint as="offset" />
          </mxGeometry>
        </mxCell>
        <mxCell id="mQTpq0uyzVnwd5tYp-rb-18" value="Confirmation message" style="html=1;verticalAlign=bottom;endArrow=block;curved=0;rounded=0;entryX=1;entryY=1;entryDx=0;entryDy=0;fontSize=12;" parent="1" source="jifBtWdmBy9m-nwZBecx-1" target="mQTpq0uyzVnwd5tYp-rb-5" edge="1">
          <mxGeometry x="0.002" y="22" width="80" relative="1" as="geometry">
            <mxPoint x="339" y="159" as="sourcePoint" />
            <mxPoint x="320" y="140" as="targetPoint" />
            <Array as="points">
              <mxPoint x="250" y="180" />
            </Array>
            <mxPoint as="offset" />
          </mxGeometry>
        </mxCell>
        <mxCell id="mQTpq0uyzVnwd5tYp-rb-19" value="Confirming transaction" style="html=1;verticalAlign=bottom;endArrow=block;curved=0;rounded=0;exitX=0;exitY=0;exitDx=0;exitDy=0;fontSize=12;" parent="1" source="mQTpq0uyzVnwd5tYp-rb-6" target="jifBtWdmBy9m-nwZBecx-1" edge="1">
          <mxGeometry width="80" relative="1" as="geometry">
            <mxPoint x="670" y="80" as="sourcePoint" />
            <mxPoint x="490" y="120" as="targetPoint" />
            <Array as="points">
              <mxPoint x="560" y="100" />
            </Array>
          </mxGeometry>
        </mxCell>
        <mxCell id="mQTpq0uyzVnwd5tYp-rb-20" value="Card&#39;s details" style="html=1;verticalAlign=bottom;endArrow=block;curved=0;rounded=0;entryX=0;entryY=1;entryDx=0;entryDy=0;fontSize=12;" parent="1" source="jifBtWdmBy9m-nwZBecx-1" target="mQTpq0uyzVnwd5tYp-rb-6" edge="1">
          <mxGeometry x="0.125" y="-20" width="80" relative="1" as="geometry">
            <mxPoint x="480.0799999999999" y="164" as="sourcePoint" />
            <mxPoint x="480" y="180" as="targetPoint" />
            <Array as="points">
              <mxPoint x="560" y="190" />
            </Array>
            <mxPoint x="-6" y="1" as="offset" />
          </mxGeometry>
        </mxCell>
        <mxCell id="mQTpq0uyzVnwd5tYp-rb-26" value="User&amp;nbsp;&lt;div&gt;Credentials&lt;/div&gt;" style="html=1;verticalAlign=bottom;endArrow=block;curved=0;rounded=0;fontSize=10;exitX=1;exitY=0.5;exitDx=0;exitDy=0;" parent="1" source="mQTpq0uyzVnwd5tYp-rb-30" target="jifBtWdmBy9m-nwZBecx-5" edge="1">
          <mxGeometry y="-10" width="80" relative="1" as="geometry">
            <mxPoint x="100" y="550" as="sourcePoint" />
            <mxPoint x="190" y="570" as="targetPoint" />
            <Array as="points" />
            <mxPoint as="offset" />
          </mxGeometry>
        </mxCell>
        <mxCell id="mQTpq0uyzVnwd5tYp-rb-28" value="Authorized&lt;div&gt;credentials&lt;/div&gt;" style="html=1;verticalAlign=bottom;endArrow=block;curved=0;rounded=0;fontSize=12;exitX=0.5;exitY=1;exitDx=0;exitDy=0;entryX=0.5;entryY=0;entryDx=0;entryDy=0;" parent="1" target="mQTpq0uyzVnwd5tYp-rb-29" edge="1">
          <mxGeometry width="80" relative="1" as="geometry">
            <mxPoint x="250" y="630" as="sourcePoint" />
            <mxPoint x="250" y="710" as="targetPoint" />
            <Array as="points" />
          </mxGeometry>
        </mxCell>
        <mxCell id="mQTpq0uyzVnwd5tYp-rb-29" value="" style="html=1;dashed=0;whiteSpace=wrap;shape=mxgraph.dfd.dataStoreID;align=left;spacingLeft=3;points=[[0,0],[0.5,0],[1,0],[0,0.5],[1,0.5],[0,1],[0.5,1],[1,1]];flipH=0;fillColor=#6d8764;fontColor=#ffffff;strokeColor=#3A5431;" parent="1" vertex="1">
          <mxGeometry x="200" y="720" width="100" height="40" as="geometry" />
        </mxCell>
        <mxCell id="mQTpq0uyzVnwd5tYp-rb-30" value="User" style="whiteSpace=wrap;html=1;align=center;fillColor=#f8cecc;strokeColor=#b85450;" parent="1" vertex="1">
          <mxGeometry x="10" y="550" width="100" height="40" as="geometry" />
        </mxCell>
        <mxCell id="mQTpq0uyzVnwd5tYp-rb-31" value="Bank" style="whiteSpace=wrap;html=1;align=center;fillColor=#f8cecc;strokeColor=#b85450;" parent="1" vertex="1">
          <mxGeometry x="750" y="550" width="100" height="40" as="geometry" />
        </mxCell>
        <mxCell id="mQTpq0uyzVnwd5tYp-rb-32" value="User&#39;s account&lt;div&gt;DS&lt;/div&gt;" style="text;strokeColor=none;align=center;fillColor=none;html=1;verticalAlign=middle;whiteSpace=wrap;rounded=0;" parent="1" vertex="1">
          <mxGeometry x="230" y="725" width="60" height="30" as="geometry" />
        </mxCell>
        <mxCell id="mQTpq0uyzVnwd5tYp-rb-33" value="Confirming transaction" style="html=1;verticalAlign=bottom;endArrow=block;curved=0;rounded=0;fontSize=12;exitX=0;exitY=0;exitDx=0;exitDy=0;entryX=0.954;entryY=0.136;entryDx=0;entryDy=0;entryPerimeter=0;" parent="1" source="mQTpq0uyzVnwd5tYp-rb-31" target="jifBtWdmBy9m-nwZBecx-13" edge="1">
          <mxGeometry x="-0.0913" width="80" relative="1" as="geometry">
            <mxPoint x="650" y="520" as="sourcePoint" />
            <mxPoint x="640" y="551" as="targetPoint" />
            <Array as="points" />
            <mxPoint as="offset" />
          </mxGeometry>
        </mxCell>
        <mxCell id="mQTpq0uyzVnwd5tYp-rb-34" value="Confirmed&amp;nbsp;&lt;div&gt;transaction&lt;/div&gt;" style="html=1;verticalAlign=bottom;endArrow=block;curved=0;rounded=0;fontSize=12;exitX=0.5;exitY=1;exitDx=0;exitDy=0;entryX=0.5;entryY=0;entryDx=0;entryDy=0;" parent="1" target="mQTpq0uyzVnwd5tYp-rb-36" edge="1">
          <mxGeometry width="80" relative="1" as="geometry">
            <mxPoint x="570" y="630" as="sourcePoint" />
            <mxPoint x="580" y="700" as="targetPoint" />
            <Array as="points" />
          </mxGeometry>
        </mxCell>
        <mxCell id="mQTpq0uyzVnwd5tYp-rb-36" value="" style="html=1;dashed=0;whiteSpace=wrap;shape=mxgraph.dfd.dataStoreID;align=left;spacingLeft=3;points=[[0,0],[0.5,0],[1,0],[0,0.5],[1,0.5],[0,1],[0.5,1],[1,1]];flipH=0;fillColor=#6d8764;fontColor=#ffffff;strokeColor=#3A5431;" parent="1" vertex="1">
          <mxGeometry x="520" y="720" width="100" height="40" as="geometry" />
        </mxCell>
        <mxCell id="mQTpq0uyzVnwd5tYp-rb-62" style="edgeStyle=orthogonalEdgeStyle;rounded=0;orthogonalLoop=1;jettySize=auto;html=1;exitX=0.25;exitY=1;exitDx=0;exitDy=0;entryX=1;entryY=0.5;entryDx=0;entryDy=0;entryPerimeter=0;" parent="1" source="mQTpq0uyzVnwd5tYp-rb-37" target="jifBtWdmBy9m-nwZBecx-16" edge="1">
          <mxGeometry relative="1" as="geometry">
            <mxPoint x="460" y="875" as="targetPoint" />
          </mxGeometry>
        </mxCell>
        <mxCell id="mQTpq0uyzVnwd5tYp-rb-67" value="&lt;span style=&quot;font-size: 12px;&quot;&gt;Confirmed&amp;nbsp;&lt;/span&gt;&lt;div style=&quot;font-size: 12px;&quot;&gt;transaction&lt;/div&gt;" style="edgeLabel;html=1;align=center;verticalAlign=middle;resizable=0;points=[];" parent="mQTpq0uyzVnwd5tYp-rb-62" vertex="1" connectable="0">
          <mxGeometry x="0.3702" y="-1" relative="1" as="geometry">
            <mxPoint as="offset" />
          </mxGeometry>
        </mxCell>
        <mxCell id="mQTpq0uyzVnwd5tYp-rb-37" value="Bank&#39;s transaction&lt;div&gt;DS&lt;/div&gt;" style="text;strokeColor=none;align=center;fillColor=none;html=1;verticalAlign=middle;whiteSpace=wrap;rounded=0;" parent="1" vertex="1">
          <mxGeometry x="560" y="720" width="60" height="40" as="geometry" />
        </mxCell>
        <mxCell id="mQTpq0uyzVnwd5tYp-rb-41" value="Level 0" style="text;html=1;align=center;verticalAlign=middle;resizable=0;points=[];autosize=1;strokeColor=none;fillColor=none;fontSize=21;" parent="1" vertex="1">
          <mxGeometry x="25" y="13" width="90" height="40" as="geometry" />
        </mxCell>
        <mxCell id="mQTpq0uyzVnwd5tYp-rb-42" value="&lt;font&gt;Level 1&lt;/font&gt;" style="text;html=1;align=center;verticalAlign=middle;resizable=0;points=[];autosize=1;strokeColor=none;fillColor=none;fontSize=21;" parent="1" vertex="1">
          <mxGeometry x="5" y="453" width="90" height="40" as="geometry" />
        </mxCell>
        <mxCell id="mQTpq0uyzVnwd5tYp-rb-51" value="Transaction details" style="html=1;verticalAlign=bottom;endArrow=block;curved=0;rounded=0;exitX=0.82;exitY=-0.025;exitDx=0;exitDy=0;fontSize=12;exitPerimeter=0;" parent="1" source="mQTpq0uyzVnwd5tYp-rb-5" target="jifBtWdmBy9m-nwZBecx-1" edge="1">
          <mxGeometry x="0.1359" y="-9" width="80" relative="1" as="geometry">
            <mxPoint x="170" y="80" as="sourcePoint" />
            <mxPoint x="342" y="83.03999999999996" as="targetPoint" />
            <Array as="points">
              <mxPoint x="250" y="60" />
            </Array>
            <mxPoint as="offset" />
          </mxGeometry>
        </mxCell>
        <mxCell id="mQTpq0uyzVnwd5tYp-rb-54" value="&lt;font style=&quot;font-size: 12px;&quot;&gt;Transaction details&lt;/font&gt;" style="html=1;verticalAlign=bottom;endArrow=block;curved=0;rounded=0;fontSize=10;exitX=1;exitY=0;exitDx=0;exitDy=0;" parent="1" source="mQTpq0uyzVnwd5tYp-rb-30" target="jifBtWdmBy9m-nwZBecx-8" edge="1">
          <mxGeometry x="-0.0021" y="-10" width="80" relative="1" as="geometry">
            <mxPoint x="210" y="493" as="sourcePoint" />
            <mxPoint x="358" y="542" as="targetPoint" />
            <Array as="points">
              <mxPoint x="280" y="440" />
            </Array>
            <mxPoint as="offset" />
          </mxGeometry>
        </mxCell>
        <mxCell id="mQTpq0uyzVnwd5tYp-rb-56" value="Card&#39;s details" style="html=1;verticalAlign=bottom;endArrow=block;curved=0;rounded=0;fontSize=12;entryX=0.41;entryY=-0.025;entryDx=0;entryDy=0;entryPerimeter=0;" parent="1" source="jifBtWdmBy9m-nwZBecx-8" target="mQTpq0uyzVnwd5tYp-rb-31" edge="1">
          <mxGeometry x="-0.0097" y="-12" width="80" relative="1" as="geometry">
            <mxPoint x="460" y="540" as="sourcePoint" />
            <mxPoint x="610" y="450" as="targetPoint" />
            <Array as="points">
              <mxPoint x="570" y="440" />
            </Array>
            <mxPoint y="1" as="offset" />
          </mxGeometry>
        </mxCell>
        <mxCell id="mQTpq0uyzVnwd5tYp-rb-64" style="edgeStyle=orthogonalEdgeStyle;rounded=0;orthogonalLoop=1;jettySize=auto;html=1;entryX=0.5;entryY=1;entryDx=0;entryDy=0;exitX=0;exitY=0.5;exitDx=0;exitDy=0;exitPerimeter=0;" parent="1" source="jifBtWdmBy9m-nwZBecx-16" target="mQTpq0uyzVnwd5tYp-rb-30" edge="1">
          <mxGeometry relative="1" as="geometry">
            <mxPoint x="300" y="876" as="sourcePoint" />
          </mxGeometry>
        </mxCell>
        <mxCell id="mQTpq0uyzVnwd5tYp-rb-65" value="confirmation message" style="edgeLabel;html=1;align=center;verticalAlign=middle;resizable=0;points=[];fontSize=12;" parent="mQTpq0uyzVnwd5tYp-rb-64" vertex="1" connectable="0">
          <mxGeometry x="-0.0351" y="-1" relative="1" as="geometry">
            <mxPoint as="offset" />
          </mxGeometry>
        </mxCell>
        <mxCell id="mQTpq0uyzVnwd5tYp-rb-69" value="" style="endArrow=none;html=1;rounded=0;exitX=0;exitY=0.25;exitDx=0;exitDy=0;elbow=horizontal;exitPerimeter=0;entryX=1;entryY=0.25;entryDx=0;entryDy=0;entryPerimeter=0;" parent="1" source="jifBtWdmBy9m-nwZBecx-8" target="jifBtWdmBy9m-nwZBecx-8" edge="1">
          <mxGeometry width="50" height="50" relative="1" as="geometry">
            <mxPoint x="332.99805922287436" y="453.00359312880727" as="sourcePoint" />
            <mxPoint x="390" y="460" as="targetPoint" />
            <Array as="points" />
          </mxGeometry>
        </mxCell>
        <mxCell id="mQTpq0uyzVnwd5tYp-rb-77" value="" style="endArrow=none;html=1;rounded=0;entryX=1;entryY=0.25;entryDx=0;entryDy=0;exitX=0;exitY=0.25;exitDx=0;exitDy=0;elbow=horizontal;entryPerimeter=0;exitPerimeter=0;" parent="1" source="jifBtWdmBy9m-nwZBecx-5" target="jifBtWdmBy9m-nwZBecx-5" edge="1">
          <mxGeometry width="50" height="50" relative="1" as="geometry">
            <mxPoint x="207.57359312880726" y="536.1091270347401" as="sourcePoint" />
            <mxPoint x="292.42640687119274" y="536.1091270347397" as="targetPoint" />
          </mxGeometry>
        </mxCell>
        <mxCell id="mQTpq0uyzVnwd5tYp-rb-81" value="" style="endArrow=none;html=1;rounded=0;" parent="1" edge="1">
          <mxGeometry width="50" height="50" relative="1" as="geometry">
            <mxPoint y="400" as="sourcePoint" />
            <mxPoint x="850" y="400" as="targetPoint" />
          </mxGeometry>
        </mxCell>
        <mxCell id="jifBtWdmBy9m-nwZBecx-1" value="Transfer money" style="html=1;outlineConnect=0;whiteSpace=wrap;fillColor=#EBEBEB;shape=mxgraph.archimate3.application;appType=proc;archiType=rounded;fontSize=18;" parent="1" vertex="1">
          <mxGeometry x="350" y="95" width="150" height="75" as="geometry" />
        </mxCell>
        <mxCell id="jifBtWdmBy9m-nwZBecx-2" value="" style="endArrow=none;html=1;rounded=0;entryX=1;entryY=0.25;entryDx=0;entryDy=0;entryPerimeter=0;exitX=0;exitY=0.25;exitDx=0;exitDy=0;exitPerimeter=0;" parent="1" source="jifBtWdmBy9m-nwZBecx-1" target="jifBtWdmBy9m-nwZBecx-1" edge="1">
          <mxGeometry width="50" height="50" relative="1" as="geometry">
            <mxPoint x="430" y="200" as="sourcePoint" />
            <mxPoint x="480" y="150" as="targetPoint" />
          </mxGeometry>
        </mxCell>
        <mxCell id="jifBtWdmBy9m-nwZBecx-3" value="0" style="text;strokeColor=none;align=center;fillColor=none;html=1;verticalAlign=middle;whiteSpace=wrap;rounded=0;fontSize=16;" parent="1" vertex="1">
          <mxGeometry x="390" y="90" width="60" height="30" as="geometry" />
        </mxCell>
        <mxCell id="jifBtWdmBy9m-nwZBecx-5" value="Validate authorization" style="html=1;outlineConnect=0;whiteSpace=wrap;fillColor=#EBEBEB;shape=mxgraph.archimate3.application;appType=proc;archiType=rounded;" parent="1" vertex="1">
          <mxGeometry x="182.5" y="535" width="135" height="70" as="geometry" />
        </mxCell>
        <mxCell id="jifBtWdmBy9m-nwZBecx-6" value="" style="endArrow=none;html=1;rounded=0;entryX=1;entryY=0.25;entryDx=0;entryDy=0;entryPerimeter=0;exitX=0;exitY=0.25;exitDx=0;exitDy=0;exitPerimeter=0;" parent="1" source="jifBtWdmBy9m-nwZBecx-5" target="jifBtWdmBy9m-nwZBecx-5" edge="1">
          <mxGeometry width="50" height="50" relative="1" as="geometry">
            <mxPoint x="430" y="600" as="sourcePoint" />
            <mxPoint x="480" y="550" as="targetPoint" />
          </mxGeometry>
        </mxCell>
        <mxCell id="jifBtWdmBy9m-nwZBecx-7" value="1" style="text;strokeColor=none;align=center;fillColor=none;html=1;verticalAlign=middle;whiteSpace=wrap;rounded=0;fontSize=16;" parent="1" vertex="1">
          <mxGeometry x="220" y="525" width="60" height="35" as="geometry" />
        </mxCell>
        <mxCell id="jifBtWdmBy9m-nwZBecx-8" value="Validate account&#39;s number&lt;div&gt;and checks balance&lt;/div&gt;" style="html=1;outlineConnect=0;whiteSpace=wrap;fillColor=#EBEBEB;shape=mxgraph.archimate3.application;appType=proc;archiType=rounded;" parent="1" vertex="1">
          <mxGeometry x="345" y="542.5" width="150" height="75" as="geometry" />
        </mxCell>
        <mxCell id="jifBtWdmBy9m-nwZBecx-11" value="" style="endArrow=none;html=1;rounded=0;entryX=1;entryY=0.25;entryDx=0;entryDy=0;entryPerimeter=0;exitX=0;exitY=0.25;exitDx=0;exitDy=0;exitPerimeter=0;" parent="1" source="jifBtWdmBy9m-nwZBecx-8" target="jifBtWdmBy9m-nwZBecx-8" edge="1">
          <mxGeometry width="50" height="50" relative="1" as="geometry">
            <mxPoint x="410" y="680" as="sourcePoint" />
            <mxPoint x="460" y="630" as="targetPoint" />
          </mxGeometry>
        </mxCell>
        <mxCell id="jifBtWdmBy9m-nwZBecx-12" value="2" style="text;strokeColor=none;align=center;fillColor=none;html=1;verticalAlign=middle;whiteSpace=wrap;rounded=0;fontSize=16;" parent="1" vertex="1">
          <mxGeometry x="390" y="535" width="60" height="35" as="geometry" />
        </mxCell>
        <mxCell id="jifBtWdmBy9m-nwZBecx-13" value="Updates balance for user&#39;s account" style="html=1;outlineConnect=0;whiteSpace=wrap;fillColor=#EBEBEB;shape=mxgraph.archimate3.application;appType=proc;archiType=rounded;" parent="1" vertex="1">
          <mxGeometry x="505" y="542.5" width="130" height="70" as="geometry" />
        </mxCell>
        <mxCell id="jifBtWdmBy9m-nwZBecx-14" value="" style="endArrow=none;html=1;rounded=0;entryX=1;entryY=0.25;entryDx=0;entryDy=0;entryPerimeter=0;exitX=0;exitY=0.25;exitDx=0;exitDy=0;exitPerimeter=0;" parent="1" source="jifBtWdmBy9m-nwZBecx-13" target="jifBtWdmBy9m-nwZBecx-13" edge="1">
          <mxGeometry width="50" height="50" relative="1" as="geometry">
            <mxPoint x="410" y="680" as="sourcePoint" />
            <mxPoint x="460" y="630" as="targetPoint" />
          </mxGeometry>
        </mxCell>
        <mxCell id="jifBtWdmBy9m-nwZBecx-15" value="3" style="text;strokeColor=none;align=center;fillColor=none;html=1;verticalAlign=middle;whiteSpace=wrap;rounded=0;fontSize=16;" parent="1" vertex="1">
          <mxGeometry x="540" y="535" width="60" height="35" as="geometry" />
        </mxCell>
        <mxCell id="jifBtWdmBy9m-nwZBecx-16" value="Send confirmation" style="html=1;outlineConnect=0;whiteSpace=wrap;fillColor=#EBEBEB;shape=mxgraph.archimate3.application;appType=proc;archiType=rounded;" parent="1" vertex="1">
          <mxGeometry x="310" y="850" width="127.5" height="70" as="geometry" />
        </mxCell>
        <mxCell id="jifBtWdmBy9m-nwZBecx-17" value="" style="endArrow=none;html=1;rounded=0;entryX=1;entryY=0.25;entryDx=0;entryDy=0;entryPerimeter=0;exitX=0;exitY=0.25;exitDx=0;exitDy=0;exitPerimeter=0;" parent="1" source="jifBtWdmBy9m-nwZBecx-16" target="jifBtWdmBy9m-nwZBecx-16" edge="1">
          <mxGeometry width="50" height="50" relative="1" as="geometry">
            <mxPoint x="410" y="780" as="sourcePoint" />
            <mxPoint x="460" y="730" as="targetPoint" />
          </mxGeometry>
        </mxCell>
        <mxCell id="jifBtWdmBy9m-nwZBecx-18" value="4" style="text;strokeColor=none;align=center;fillColor=none;html=1;verticalAlign=middle;whiteSpace=wrap;rounded=0;fontSize=16;" parent="1" vertex="1">
          <mxGeometry x="343.75" y="840" width="60" height="35" as="geometry" />
        </mxCell>
      </root>
    </mxGraphModel>
  </diagram>
</mxfile>
